<svg id="Layer_1" data-name="Layer 1" xmlns="http://www.w3.org/2000/svg" xmlns:xlink="http://www.w3.org/1999/xlink" viewBox="0 0 595.276 595.275">
  <defs>
    <style>
      .cls-1, .cls-3 {
        fill: url(#GradientFill_1);
      }

      .cls-1 {
        clip-rule: evenodd;
      }

      .cls-2 {
        fill: none;
      }

      .cls-10, .cls-11, .cls-12, .cls-3, .cls-6, .cls-9 {
        fill-rule: evenodd;
      }

      .cls-4 {
        clip-path: url(#clip-path);
      }

      .cls-5 {
        fill: url(#GradientFill_2);
      }

      .cls-6, .cls-7, .cls-8 {
        fill: #fff;
      }

      .cls-7 {
        stroke: #fff;
        stroke-miterlimit: 22.926;
        stroke-width: 3.564px;
      }

      .cls-9 {
        fill: url(#GradientFill_3);
      }

      .cls-10 {
        fill: url(#GradientFill_4);
      }

      .cls-11 {
        fill: url(#GradientFill_4-2);
      }

      .cls-12 {
        fill: url(#GradientFill_5);
      }
    </style>
    <radialGradient id="GradientFill_1" data-name="GradientFill 1" cx="247.756" cy="368.826" r="395.814" gradientUnits="userSpaceOnUse">
      <stop offset="0" stop-color="#0868ac"/>
      <stop offset="1" stop-color="#0a0f51"/>
    </radialGradient>
    <clipPath id="clip-path" transform="translate(-0.5 0.775)">
      <path class="cls-1" d="M298.138,70.65c115.939,0,209.925,93.987,209.925,209.926A209.514,209.514,0,0,1,430.688,443.37C355.245,359.734,320.8,411.9,270.538,411.9c-98.048,0-154-55.817-175.876-79.485a210.342,210.342,0,0,1-6.45-51.84C88.212,164.637,182.2,70.65,298.138,70.65Z"/>
    </clipPath>
    <radialGradient id="GradientFill_2" data-name="GradientFill 2" cx="428.367" cy="372.996" r="382.431" gradientUnits="userSpaceOnUse">
      <stop offset="0" stop-color="#b3b3b3"/>
      <stop offset="0.1" stop-color="#f5f5f5"/>
      <stop offset="0.16" stop-color="#ededed"/>
      <stop offset="0.39" stop-color="#999"/>
      <stop offset="0.49" stop-color="#666"/>
      <stop offset="0.67" stop-color="#f5f5f5"/>
      <stop offset="0.76" stop-color="#ededed"/>
      <stop offset="1" stop-color="#b3b3b3"/>
    </radialGradient>
    <linearGradient id="GradientFill_3" data-name="GradientFill 3" x1="362.074" y1="313.013" x2="173.815" y2="454.877" gradientUnits="userSpaceOnUse">
      <stop offset="0" stop-color="#bf0000"/>
      <stop offset="0.31" stop-color="#9e0000"/>
      <stop offset="0.67" stop-color="#fd2313"/>
      <stop offset="1" stop-color="#8c0001"/>
    </linearGradient>
    <linearGradient id="GradientFill_4" data-name="GradientFill 4" x1="362.606" y1="338.498" x2="198.17" y2="462.41" gradientUnits="userSpaceOnUse">
      <stop offset="0" stop-color="#ededed"/>
      <stop offset="0.31" stop-color="#c7c7c7"/>
      <stop offset="0.69" stop-color="#fff"/>
      <stop offset="1" stop-color="#d4d4d4"/>
    </linearGradient>
    <linearGradient id="GradientFill_4-2" x1="337.131" y1="289.171" x2="157.774" y2="424.326" xlink:href="#GradientFill_4"/>
    <linearGradient id="GradientFill_5" data-name="GradientFill 5" x1="334.294" y1="332.497" x2="183.811" y2="445.894" gradientUnits="userSpaceOnUse">
      <stop offset="0" stop-color="#bf0000"/>
      <stop offset="0.3" stop-color="#9e0000"/>
      <stop offset="0.66" stop-color="#fd2313"/>
      <stop offset="1" stop-color="#8c0001"/>
    </linearGradient>
  </defs>
  <title>55da382f-86f2-4e9c-b6bb-2bffb77974f2 [Converted]</title>
  <rect class="cls-2" width="595.276" height="595.275"/>
  <g>
    <path class="cls-3" d="M298.138,70.65c115.939,0,209.925,93.987,209.925,209.926A209.514,209.514,0,0,1,430.688,443.37C355.245,359.734,320.8,411.9,270.538,411.9c-98.048,0-154-55.817-175.876-79.485a210.342,210.342,0,0,1-6.45-51.84C88.212,164.637,182.2,70.65,298.138,70.65Z" transform="translate(-0.5 0.775)"/>
    <g class="cls-4">
      <path class="cls-5" d="M439.444,139.268a199.841,199.841,0,1,0,58.53,141.306,199.214,199.214,0,0,0-58.53-141.306ZM298.138,168.1a112.567,112.567,0,0,1,89.076,43.794,9.931,9.931,0,0,0-1.6-.633,13.953,13.953,0,0,0-2.295-.483,16.987,16.987,0,0,0-2.093-.128H372.76q-1.137-1.212-2.31-2.388a102.3,102.3,0,0,0-155.235,12.454,11.018,11.018,0,0,0-.961-3.857l.015-.007a9.889,9.889,0,0,0-4-4.482,11.479,11.479,0,0,0-1.117-.589A112.539,112.539,0,0,1,298.138,168.1Zm94.527,51.5a111.947,111.947,0,0,1,17.948,60.975q0,3.946-.269,7.825l-17.7-68.776.021,0,0-.02Zm7.216,108.978a112.533,112.533,0,0,1-207.153-8.688,38.347,38.347,0,0,0,6.286,4.244,41.649,41.649,0,0,0,7.174,3.031q.529.17,1.061.326a102.32,102.32,0,0,0,181.538.463,12.782,12.782,0,0,0,4.037.624h7.057ZM298.137,70.528c116.006,0,210.048,94.041,210.048,210.047S414.144,490.623,298.137,490.623,88.09,396.581,88.09,280.575,182.132,70.528,298.137,70.528Z" transform="translate(-0.5 0.775)"/>
    </g>
  </g>
  <polygon class="cls-6" points="153.149 203.048 157.02 215.042 169.624 215.017 159.413 222.406 163.331 234.385 153.149 226.957 142.967 234.385 146.884 222.406 136.674 215.017 149.277 215.042 153.149 203.048"/>
  <polygon class="cls-6" points="177.448 163.785 181.32 175.779 193.923 175.754 183.713 183.143 187.631 195.122 177.448 187.694 167.266 195.122 171.184 183.143 160.974 175.754 173.577 175.779 177.448 163.785"/>
  <polygon class="cls-6" points="140.926 250.523 144.798 262.517 157.401 262.493 147.191 269.881 151.108 281.86 140.926 274.432 130.744 281.86 134.662 269.881 124.451 262.493 137.055 262.517 140.926 250.523"/>
  <polygon class="cls-6" points="144.808 299.592 148.679 311.586 161.283 311.562 151.072 318.95 154.99 330.929 144.808 323.501 134.626 330.929 138.543 318.95 128.333 311.562 140.936 311.586 144.808 299.592"/>
  <polygon class="cls-6" points="455.314 260.91 451.443 272.904 438.839 272.88 449.049 280.268 445.132 292.248 455.314 284.82 465.496 292.248 461.578 280.268 471.789 272.88 459.185 272.904 455.314 260.91"/>
  <polygon class="cls-6" points="447.214 213.21 443.343 225.205 430.739 225.181 440.95 232.568 437.032 244.548 447.214 237.12 457.396 244.548 453.479 232.568 463.689 225.181 451.086 225.205 447.214 213.21"/>
  <polygon class="cls-6" points="424.489 172.485 420.618 184.48 408.014 184.455 418.225 191.843 414.307 203.823 424.489 196.395 434.671 203.823 430.754 191.843 440.964 184.455 428.361 184.48 424.489 172.485"/>
  <polygon class="cls-6" points="448.711 309.848 444.84 321.842 432.236 321.818 442.447 329.206 438.529 341.185 448.711 333.757 458.893 341.185 454.976 329.206 465.186 321.818 452.583 321.842 448.711 309.848"/>
  <polygon class="cls-6" points="426.774 353.273 422.902 365.267 410.299 365.243 420.509 372.631 416.592 384.61 426.774 377.182 436.956 384.61 433.038 372.631 443.249 365.243 430.645 365.267 426.774 353.273"/>
  <path class="cls-7" d="M206.734,291.614a11.982,11.982,0,0,0,4.089,9.16q4.089,3.762,10.959,3.762t10.959-3.762a12.159,12.159,0,0,0,4.089-9.323V221.608q0-2.453,2.944-2.453h12.594q3.108,0,3.108,2.29v70.169a28.3,28.3,0,0,1-2.617,12.349,27.484,27.484,0,0,1-7.2,9.323,31.3,31.3,0,0,1-10.714,5.806,42.414,42.414,0,0,1-13,1.963,42.966,42.966,0,0,1-13.167-1.963,31.3,31.3,0,0,1-10.713-5.806,27.48,27.48,0,0,1-7.2-9.323,28.3,28.3,0,0,1-2.617-12.349V221.608q0-2.453,2.944-2.453h12.594a4.093,4.093,0,0,1,2.127.491,1.923,1.923,0,0,1,.818,1.8Z" transform="translate(-0.5 0.775)"/>
  <path class="cls-7" d="M332.3,291.124a28.345,28.345,0,0,1-2.7,12.676,27.945,27.945,0,0,1-7.36,9.323,31.769,31.769,0,0,1-11.122,5.806,47.314,47.314,0,0,1-13.821,1.963,55.32,55.32,0,0,1-17.747-2.944,37.059,37.059,0,0,1-14.966-9.323,4.393,4.393,0,0,1-1.635-2.454q-.164-1.145,1.308-2.944l6.379-7.2q1.472-1.636,2.535-1.309a9.019,9.019,0,0,1,2.7,1.636A33.186,33.186,0,0,0,286.1,302.41a30.339,30.339,0,0,0,10.713,2.29q8.833,0,12.84-3.6a11.767,11.767,0,0,0,4.007-9.16,10.368,10.368,0,0,0-1.636-5.888,16.161,16.161,0,0,0-4.58-4.416,37.66,37.66,0,0,0-6.788-3.517q-3.844-1.554-8.26-3.026a92.121,92.121,0,0,1-9.4-3.844,36.706,36.706,0,0,1-8.424-5.479,26.021,26.021,0,0,1-6.134-7.933,24.459,24.459,0,0,1-2.372-11.2,27.12,27.12,0,0,1,9.4-21.1,30.024,30.024,0,0,1,10.059-5.725,37.57,37.57,0,0,1,12.267-1.963,62.24,62.24,0,0,1,15.293,1.8,43.719,43.719,0,0,1,13.167,5.725q1.8,1.308,1.717,2.372a6.927,6.927,0,0,1-1.226,2.862l-4.253,7.851a3.159,3.159,0,0,1-2.126,1.554,4.657,4.657,0,0,1-2.78-.409,69.115,69.115,0,0,0-9.569-4.089,28.761,28.761,0,0,0-9.241-1.636,18.221,18.221,0,0,0-10.059,2.78q-4.334,2.781-4.334,9.814a8.152,8.152,0,0,0,1.718,5.152,17,17,0,0,0,4.253,3.844,29.44,29.44,0,0,0,5.561,2.78q3.026,1.145,5.643,2.126,5.234,1.963,10.713,4.171a42.6,42.6,0,0,1,9.9,5.561,27.241,27.241,0,0,1,7.279,8.424A25.314,25.314,0,0,1,332.3,291.124Z" transform="translate(-0.5 0.775)"/>
  <path class="cls-7" d="M408.527,316.64a3.862,3.862,0,0,1,.082,2.126q-.245,1.308-2.535,1.308H392.825q-2.617,0-3.271-2.126l-3.762-16.356a4.78,4.78,0,0,0-.736-1.8,1.72,1.72,0,0,0-1.39-.491H359.457q-1.308,0-1.636.654t-.654,1.472q-.327,1.308-.818,3.517t-1.063,4.743q-.572,2.535-1.063,4.825t-.818,3.435a2.56,2.56,0,0,1-1.227,1.636,3.876,3.876,0,0,1-1.881.491H337.7q-2.29,0-2.7-.981a3.592,3.592,0,0,1-.082-2.29l23.88-95.359a3.3,3.3,0,0,1,3.435-2.29h18.646a6.886,6.886,0,0,1,1.963.245q.818.245,1.145,1.881l24.535,95.359Zm-32.713-57.084-3.926-18.81q-.164-.654-.572-.736t-.573.736l-3.762,18.483-5.07,23.39a1.955,1.955,0,0,0,0,1.145q.163.327,1.145.327h17.011q1.636,0,.981-1.635Z" transform="translate(-0.5 0.775)"/>
  <path class="cls-8" d="M395.463,137.425a4.618,4.618,0,0,1,.646.6,2.23,2.23,0,0,1,.416.675l0,.011a2.279,2.279,0,0,1,.119.719,3.535,3.535,0,0,1-.071.726h0l-3.52,23.937L405.9,147.758a1.624,1.624,0,0,1,1.147-.68,1.765,1.765,0,0,1,1.258.436l3.532,2.776a1.875,1.875,0,0,1,.755,1.131,1.592,1.592,0,0,1-.375,1.3l-22.4,28.505a2.452,2.452,0,0,1-.642.592,1.407,1.407,0,0,1-.856.219h0a2.078,2.078,0,0,1-.659-.166,2.67,2.67,0,0,1-.6-.359l-2.5-1.966a6.811,6.811,0,0,1-.555-.482,3.352,3.352,0,0,1-.414-.478,1.614,1.614,0,0,1-.266-.773,3.176,3.176,0,0,1,.04-.827l3.411-23.8-12.694,16.153a1.4,1.4,0,0,1-1.186.59,2.107,2.107,0,0,1-1.232-.515l-3.5-2.75a2.112,2.112,0,0,1-.794-1.072,1.407,1.407,0,0,1,.3-1.295l22.324-28.407h0a2.215,2.215,0,0,1,1.413-.915,2.05,2.05,0,0,1,1.586.5h0Z" transform="translate(-0.5 0.775)"/>
  <path class="cls-8" d="M353.623,159.727a1.936,1.936,0,0,1-.959-.93,1.5,1.5,0,0,1,.091-1.327l16.7-32.6a1.5,1.5,0,0,1,1.024-.85,1.931,1.931,0,0,1,1.313.234l4.332,2.219a1.935,1.935,0,0,1,.959.93,1.5,1.5,0,0,1-.091,1.327l-16.669,32.546h0a1.592,1.592,0,0,1-1.024.886,1.876,1.876,0,0,1-1.342-.215h0Z" transform="translate(-0.5 0.775)"/>
  <path class="cls-8" d="M334.753,144.384a1.624,1.624,0,0,1,1.139.693,1.759,1.759,0,0,1,.207,1.314v0l-.724,4.054a1.879,1.879,0,0,1-.644,1.2,1.594,1.594,0,0,1-1.326.28l-20.824-3.719h0a1.826,1.826,0,0,1-1.207-.675,1.683,1.683,0,0,1-.262-1.353h0v0l6.4-35.812a1.688,1.688,0,0,1,.714-1.183,1.825,1.825,0,0,1,1.365-.214h0l20.455,3.653a2.113,2.113,0,0,1,.571.186,1.833,1.833,0,0,1,.49.352,1.328,1.328,0,0,1,.36.683,1.933,1.933,0,0,1,0,.735l-.713,3.993v0a1.88,1.88,0,0,1-.644,1.2,1.594,1.594,0,0,1-1.326.28h0l-13.7-2.446h0a2.13,2.13,0,0,0-.313-.037.933.933,0,0,0-.026.109h0l-1.316,7.371h0a.545.545,0,0,0,.005.338c.024.038.1.068.239.092h0l11.3,2.019a1.6,1.6,0,0,1,1.147.724,1.874,1.874,0,0,1,.188,1.346h0l-.7,3.929v0a1.764,1.764,0,0,1-.651,1.165,1.624,1.624,0,0,1-1.307.254l-11.364-2.029h0a1.321,1.321,0,0,0-.236-.025,1.127,1.127,0,0,0-.061.23v0l-1.514,8.477h0a1.056,1.056,0,0,0-.021.218l.034.014a2,2,0,0,0,.378.1Z" transform="translate(-0.5 0.775)"/>
  <path class="cls-8" d="M290.856,140.235a6.542,6.542,0,0,0,2.15-.482,3.027,3.027,0,0,0,1.255-.975,4.108,4.108,0,0,0,.669-1.515,6.879,6.879,0,0,0,.118-2.048l-1.159-15.244a6.72,6.72,0,0,0-.494-2.207,3.117,3.117,0,0,0-1-1.292,4.208,4.208,0,0,0-1.558-.687,7.045,7.045,0,0,0-2.1-.122l-4.791.364a1.337,1.337,0,0,0-.331.057.513.513,0,0,0-.014.062,1.261,1.261,0,0,0-.005.29l1.817,23.892a.241.241,0,0,0,.343.293l5.1-.388Zm-11.43,8.553a1.938,1.938,0,0,1-1.369-.335,1.66,1.66,0,0,1-.622-1.26l-2.758-36.274a1.654,1.654,0,0,1,.424-1.337,1.94,1.94,0,0,1,1.3-.539l12.568-.956a16.476,16.476,0,0,1,5.438.391,9.673,9.673,0,0,1,4.1,2.163,10.546,10.546,0,0,1,2.616,3.693,15.329,15.329,0,0,1,1.14,4.938l1.164,15.306a15.9,15.9,0,0,1-.371,5.149,10.648,10.648,0,0,1-2.02,4.1,9.7,9.7,0,0,1-3.678,2.778,15.6,15.6,0,0,1-5.184,1.21Z" transform="translate(-0.5 0.775)"/>
  <path class="cls-8" d="M253.762,130.5l-2.375-4.535.378,4.972v.008l.559,8.845,5.648-1.6-4.205-7.672-.005-.013ZM272.9,147.371a1.788,1.788,0,0,1,.233.474,2.738,2.738,0,0,1,.115.594,1.157,1.157,0,0,1-.385.995,2.158,2.158,0,0,1-.9.465l-4.862,1.381a2.117,2.117,0,0,1-1.219.021,1.726,1.726,0,0,1-.956-.745l-.027-.043-3.085-5.611h0a2.383,2.383,0,0,0-.183-.278l-.018-.023-.038.01h0l-8.884,2.522-.073.023q-.009.056-.018.119c-.012.088-.023.172-.032.252q.007.214.023.541.015.31.041.769.025.431.051.894t.053.958v0c.016.288.034.605.054.948.018.3.037.607.058.925q.027.415.044.8.014.338.014.59a1.814,1.814,0,0,1-.113.651h0a1.556,1.556,0,0,1-.366.561,2.223,2.223,0,0,1-.432.332,2.108,2.108,0,0,1-.5.214h0l-4.622,1.313a2.73,2.73,0,0,1-.924.124,1.182,1.182,0,0,1-.883-.434,1.833,1.833,0,0,1-.307-.582,2.355,2.355,0,0,1-.107-.651L243.471,118v-.066a1.93,1.93,0,0,1,.448-1.158,2.119,2.119,0,0,1,1.065-.649h0l6.841-1.942h0a3.972,3.972,0,0,1,.482-.107,2.76,2.76,0,0,1,.461-.031h0a1.129,1.129,0,0,1,.766.326,2.157,2.157,0,0,1,.425.581h0Z" transform="translate(-0.5 0.775)"/>
  <path class="cls-8" d="M240.946,157.375a1.684,1.684,0,0,1,.28,1.354,1.849,1.849,0,0,1-.866,1.089l-3.87,2.481a1.836,1.836,0,0,1-1.271.338,1.527,1.527,0,0,1-1.074-.753l-9.176-14.312.923,4.322v.005l2.531,12.387.007.037,0,.03a4.4,4.4,0,0,1,.023.617,3.244,3.244,0,0,1-.069.582,1.646,1.646,0,0,1-.338.689,2.4,2.4,0,0,1-.58.507l-2.416,1.549a5.227,5.227,0,0,1-.564.317,3,3,0,0,1-.546.2,1.484,1.484,0,0,1-.809-.04,3.029,3.029,0,0,1-.74-.363l-.035-.024-10.028-7.432-.011-.008-3.36-2.6L217.9,172.3h0a1.505,1.505,0,0,1,.22,1.313,1.933,1.933,0,0,1-.864,1.019h0l-3.834,2.458a1.828,1.828,0,0,1-1.344.327,1.688,1.688,0,0,1-1.112-.818l-19.534-30.467a1.876,1.876,0,0,1-.317-1.491,2.019,2.019,0,0,1,.951-1.205l3.257-2.088a7.038,7.038,0,0,1,.639-.369,3.33,3.33,0,0,1,.586-.232,1.526,1.526,0,0,1,.88.04,3.6,3.6,0,0,1,.826.409l.043.029c.072.054.274.2.6.442.445.324.769.558.982.712q.867.625,1.265.914.539.392,1.448,1.058l1.584,1.16,1.685,1.224q.765.556,1.674,1.229t1.582,1.183q.836.632,1.421,1.066.691.512,1.248.912l.988.712q.3.219.621.458l6.132,4.592q-.066-.285-.145-.644h0c-.061-.275-.151-.694-.276-1.274-.079-.369-.173-.813-.284-1.34q-.121-.58-.283-1.335c-.127-.594-.219-1.017-.273-1.263q-.143-.649-.227-1.053-.092-.446-.131-.684l-3.718-18.269-.008-.048a2.359,2.359,0,0,1,.27-1.482,3.187,3.187,0,0,1,1.109-1.125l3.125-2a2.034,2.034,0,0,1,1.5-.369,1.872,1.872,0,0,1,1.228.91Z" transform="translate(-0.5 0.775)"/>
  <g>
    <path class="cls-9" d="M144.275,391.069q2.18,2.444,4.273,4.919l0,0c9.273,10.934,17.62,22.281,28.631,33.566,48.812,50.023,105.067-.851,161.674-15.511,26.948-6.979,49.661-4.908,78.331,17.227a152.527,152.527,0,0,1,13.6,12.207c-7.348-9.072-14.981-17.638-22.408-26.551-9.817-11.368-20.566-24.628-30.2-35.49l.012.014c-16.2-19.277-35.232-41.465-45.577-49.719-25.845-22.087-51.481-24.252-78.48-17.26C198.34,328.914,143.666,377.58,94.589,332.342c6.413,7.475,12.561,15.152,19.341,23.163,2.218,2.361,4.48,5.156,6.71,7.525,3.324,3.931,15.617,18.645,23.635,28.039Zm-23.637-28.041,0,0Z" transform="translate(-0.5 0.775)"/>
    <path class="cls-10" d="M144.394,391.2q2.119,2.378,4.154,4.786l0,0c5.161,6.085,10.035,12.3,15.241,18.558q.672.784,1.337,1.571l0,0q.687.812,1.366,1.627l.2.247c.273.331.549.655.825.974l.107.124c19.088,21.841,48.13,15.253,78.571,4.14l1.763-.708,22.444-9.056c17.265-7.363,34.68-15.095,51.511-19.468,47.5-10.978,65.868.221,85.842,22.212-7.632-8.863-15.8-18.805-23.544-27.837-18.524-20.346-38.544-25.635-78.218-14.459-16.537,4.658-34.717,11.869-51.944,19.1l-22.543,9.079-1.053.423c-32.279,11.952-62.652,16.9-85.5-10.739Q144.673,391.492,144.394,391.2Z" transform="translate(-0.5 0.775)"/>
    <path class="cls-11" d="M372.688,374.928c-7.49-8.849-15.292-17.906-22.364-25.65-23.569-25.807-53.549-22.037-77.9-15.013-16.507,4.762-34.717,11.869-51.944,19.1l-22.542,9.079-1.053.423c-32.279,11.952-62.652,16.9-85.5-10.739-.973-.977-1.956-2.062-2.94-3.182q2.689,3.243,5.485,6.557c2.218,2.361,4.48,5.156,6.71,7.525,2.424,2.868,9.623,11.474,16.452,19.567,19.055,17.993,46.666,11.526,75.537.987l1.763-.708,22.444-9.056c17.265-7.363,34.68-15.095,51.511-19.468,46.312-10.7,64.927-.327,84.34,20.577Zm-252.05-11.9,0,0Z" transform="translate(-0.5 0.775)"/>
    <path class="cls-12" d="M144.325,391.125h0l.017.019q2.145,2.406,4.205,4.843l0,0q.685.807,1.362,1.617l.2.245c19.016,23.017,48.433,16.435,79.292,5.207l1.759-.7,22.385-9c17.218-7.319,34.587-15,51.374-19.352,50.387-11.606,67.9,1.721,89.437,26.37l.1.109-.291-.347-.228-.272-.252-.3-.008-.009-.259-.309-.212-.253-.048-.057-.259-.309-.173-.206L392.38,398l-.134-.16-.125-.149-.259-.308-.1-.113-.164-.195-.259-.308-.055-.067-.2-.241-.259-.307-.017-.02-.242-.287-.237-.281-.021-.025-.259-.307-.2-.234-.06-.072-.417-.493-.1-.118-.258-.305-1.544-1.824,0,0-.949-1.116-.074-.087-.4-.468-.112-.132-.662-.776-.358-.418-.254-.3-.028-.032-.734-.855-.2-.238-.048-.057-.253-.293-.166-.193-.338-.393-.128-.148-.124-.144-.251-.291-.42-.486-.332-.382-.25-.287-.014-.016-.236-.271-.225-.259-.024-.027-.249-.286-.187-.214-.061-.07-.365-.418-.032-.037-.1-.111-.247-.282-.112-.127-.381-.433-.074-.084-.172-.194-.245-.278-.037-.042-.208-.235-.244-.276.013.014-.439-.522-.014-.016-1.227-1.458-.112-.134-.012-.014-1.686-2-.113-.135-.114-.135q-1.762-2.087-3.549-4.193l0,0-.089-.079c-19.61-23.786-39.51-30.6-81.782-18.728-16.493,4.63-34.625,11.8-51.806,18.986l-22.482,9.025-1.05.421c-31.562,11.648-61.57,16.791-84.21-8.9l-.031-.033,1.656,1.971.116.137.31.369.06.071.369.439,0,0,.374.446.052.062.325.386.109.13.269.319.167.2.213.253.38.452.282.335.1.118,1.147,1.362.074.087.309.367.131.156.441.523.194.23.246.291.136.161.3.359.437.519.021.024.38.45.036.043.342.4.093.11,1.291,1.527.112.132.734.867h0l1.242,1.464.195.229.211.248.14.165.26.306.087.1.309.363.034.04.339.4.017.02Z" transform="translate(-0.5 0.775)"/>
  </g>
</svg>
